<?xml version='1.0' encoding='utf-8'?>
<svg xmlns="http://www.w3.org/2000/svg" data-name="Layer 1" viewBox="0 0 1e3 1e3"> <defs> <style>.cls-1 { fill: #e6ac4e; } .cls-2 { stroke: #6a3821; } .cls-2, .cls-3 { fill: none; stroke-linecap: round; stroke-linejoin: round; stroke-width: 11.38px; } .cls-4 { fill: #693821; } .cls-5 { fill: #6c3a22; } .cls-6 { fill: #e6ac51; } .cls-3 { stroke: #6b3921; } .cls-7 { fill: #693820; } .cls-8 { fill: #6c3823; }</style> </defs> <g data-name="Generative Object"> <path class="cls-8" d="m386.59 782.38c-5.96 15.04-39.95-8.97-49.1-15.86-32.83-24.72-57.07-57.71-72.08-95.62l-4.75-12c-26.31-66.45-21.73-148.46 1.87-214.95 2.52-8.47 5.08-15.72 8.61-23.98 29.27-73.58 78.54-137.68 145.21-180.96 39.91-25.91 133.15-69.4 161.98-9.24 7.81 16.29 11.43 33.62 10.71 52.15-3 76.83-47.54 141.83-106.93 188.25-67.72 52.94-115.41 120.38-120.07 208.09-3.48 65.59 28.69 93.66 24.54 104.13z"/> <path class="cls-5" d="M414.35,747.24c-6.74-35.33-.42-70.28,13.3-103.85,19.73-48.27,53-87.22,94.89-118.86,66.44-50.18,113.87-128.45,115.91-211.77,1.62-66.35-34.47-90.22-25.11-99.32,9.81-9.54,36.4,8.86,47.22,17.22,90.18,69.65,113.02,183.87,86.04,292.11-24.92,99.96-88.34,187.84-175.09,242.7-28.25,17.86-58.84,30.24-90.74,33.88-36.2,4.13-59.8-17.41-66.41-52.11Z"/> <path class="cls-6" d="m359.1 114.51c2.92 20.73-70.7 112.46-160.14 77-8.48-3.36-14.94-9.73-16.76-16.77-5.9-22.85 14.77-39.75 34.48-50.86 63.55-35.83 141.01-19.42 142.43-9.36z"/> <path class="cls-6" d="M117.8,355.8c-4.87,1.3-8.4-.11-10.45-.77-2.79-.9-4.2-6.09-4-9.61,3.58-63.15,64.34-126.09,131.84-121.52,4.78,6.79,2.36,15.77-.31,23.67-17.87,52.9-62.64,93.63-117.08,108.22Z"/> <path class="cls-1" d="M892.26,693.8c-10.45,46.32-35.42,87.06-76.83,109.36-4.95,2.66-9.81,3.37-13.22,2.41-21.4-6.06-11.32-112.16,75.83-153.54,4.21-2,9.22-2.85,12.46-.46,6.72,4.98,2.13,24.91,5.4,25.86-5.01,5.07-1.1,11.07-3.64,16.37Z"/> <path class="cls-1" d="M779.24,823.02c10.14,9.6-60.52,83.77-140.75,66.04-4.4-.97-7.43-3.71-8.73-6.1-1.86-3.43-.02-8.59,2.36-12.24,35.42-54.27,123.88-69.73,147.12-47.71Z"/> <path class="cls-2" d="M154.79,179.79C23.02,331.71-4.91,540.88,91.22,719.33c97.1,180.26,299.37,275.67,500.19,237.94,65.21-12.25,128.02-37.21,183.25-72.91"/> <path class="cls-7" d="M97.13,400.51c-14.81,46.24-17.13,96.02-11.84,144.08.77,8.84,2.79,20.68,4.19,29.54.4,1.83,1.61,7.78,2.03,9.74.9,4,1.77,9.13,2.84,12.96,2,7.85,4.6,18.04,7.12,25.55.71,2.37,2.31,7.26,2.99,9.49.41,1.54,4.98,13.7,5.67,15.58,1.16,3.47,3.45,8.85,4.95,12.3,2.82,6.95,7.57,17.28,11.03,24.12,0,0,2.9,5.96,2.9,5.96l3.19,5.82,6.37,11.64c2.37,3.97,8.1,13.2,10.38,16.98,2.38,3.5,8.66,12.8,11.17,16.47,3.74,5.14,8.13,10.78,11.94,15.92,6.52,8.04,14.49,17.67,21.59,25.16,2.64,2.94,6.33,6.93,9.14,9.61,1.8,1.79,10.08,10.13,11.82,11.63,1.57,1.43,5.76,5.2,7.38,6.67.85.78,5.38,4.86,6.15,5.56.86.72,2.97,2.43,3.84,3.16,33.77,28.45,72.23,51.61,113.18,68.13,3.69,1.67,8.63,3.32,12.39,4.72,3.23,1.09,9.13,3.47,12.5,4.44,0,0,12.67,3.92,12.67,3.92,3.93,1.34,8.82,2.52,12.78,3.54,7.8,2.15,17.92,4.4,25.86,5.91,7.69,1.78,18.39,3.07,26.17,4.33,0,0,1.64.25,1.64.25l1.65.17,3.3.33,6.6.66,6.6.67c1.1.1,2.2.24,3.3.32,5.53.33,11.73.55,16.57.83,35.27,1.32,71.01-1.2,105.51-8.55,2.23-.5,4.45.91,4.94,3.15.49,2.23-.92,4.44-3.15,4.93-28.74,6.24-58,8.77-87.32,9.09-11.66.22-25.42-.59-37.16-1.19-4.8-.49-11.98-1.17-16.83-1.68-1.42-.16-3.75-.36-5.05-.51-5.79-.93-16.11-2.38-21.73-3.32-3.89-.84-15.76-3.17-19.89-4.05-7.42-1.87-15.53-3.84-22.92-5.93-6.14-1.94-16.6-4.96-22.54-7.21-4.71-1.71-11.24-4.07-15.88-5.82-4.14-1.75-14.55-6.12-18.7-7.88-1.76-.88-7.27-3.46-9.15-4.39-33.59-15.87-64.94-36.68-93.29-60.66-3.74-3.12-8.93-8.03-12.6-11.28-5.84-5.19-13.83-13.38-19.31-18.94-4.36-4.88-9.37-10.11-13.65-15.01-2.88-3.56-10.16-12.12-12.93-15.64-3.86-5.25-8.36-10.98-12.17-16.23-2.43-3.69-9.02-13.13-11.39-16.79-2.44-3.88-8.13-13.36-10.59-17.31-1.88-3.59-7.87-14.24-9.75-17.8-2.1-4.25-6.78-13.97-8.88-18.25-2.68-6.02-5.35-12.6-7.99-18.65-2.33-6.07-6.09-16.06-8.17-22.22-2.21-7.3-5.04-15.25-6.89-22.65-.76-3.3-4.39-16.1-4.93-19.68-.92-4.53-2.51-11.97-3.45-16.56-.86-5.06-1.89-12.19-2.63-16.71-1.39-8.91-2.09-17.92-3.01-26.88,0,0-.73-13.51-.73-13.51l-.37-6.75c-.37-20.08.04-40.92,2.89-60.83,2.38-17.93,6.27-35.68,11.76-52.96.66-2.35,1.03-5.03,3.28-6.44.59-.5,1.21-1.08,1.68-1.73.18.18.41.41.86.86,1.35,1.36,3.84,3.84,3.84,3.84-.62,1.98-1.23,4.03-1.77,5.99h0Z"/> <path class="cls-3" d="M858.37,809.5c18.47-21.62,35.17-43.87,48.49-70.59,43.37-86.95,65.45-181.5,57.37-279.01-9.35-112.83-59.51-216.35-142.52-294.59-86.59-81.62-199.24-131.56-317.37-130.72l-32.87.23c-66.56.47-129.28,20.51-189.64,44.87"/> <path class="cls-4" d="M903.48,604.17c10.47-38.71,14.82-78.87,14.26-118.92.06-2.45.04-7.79.08-10.1.15-25.43-2.85-51.02-8.68-75.76-42.51-174.52-215.15-310.3-393.79-316.48-37.69-1.48-75.25,3.94-111.56,13.77-1.26.14-2.47-.48-3.38-1.3-5.35-4.54,3.79-7.12,7.38-8.13,213.39-58.82,452.11,93.3,507.74,303.63,6.26,24.13,9.81,49.18,10.47,74.11.09,6.21.1,14.11.01,20.33.02,22.44-.63,45.44-3.86,67.69-2.45,17.97-6.05,35.76-10.67,53.28-.98,3.6-3.46,12.76-8.06,7.46-.83-.9-1.45-2.1-1.33-3.37.43-2.12.97-4.13,1.39-6.21h0Z"/> </g> </svg>